HIERARCHY
ROOT Hips
{
	OFFSET 0.000000 0.000000 0.000000
	CHANNELS 6 Xposition Yposition Zposition Zrotation Yrotation Xrotation 
	JOINT LeftUpLeg_virtual
	{
		OFFSET 0.000000 0.000000 0.000000
		CHANNELS 3 Zrotation Yrotation Xrotation
		JOINT LeftUpLeg
		{
			OFFSET 10.205400 -3.823500 0.155100
			CHANNELS 3 Zrotation Yrotation Xrotation
			JOINT LeftLeg
			{
				OFFSET 0.708757 -12.982077 0.567790
				CHANNELS 3 Zrotation Yrotation Xrotation
				JOINT LeftFoot
				{
					OFFSET -0.708756 -10.717838 -2.184338
					CHANNELS 3 Zrotation Yrotation Xrotation
					JOINT LeftToeBase
					{
						OFFSET 0.108149 -7.191104 7.560241
						CHANNELS 3 Zrotation Yrotation Xrotation
						End Site
						{
							OFFSET 0.000000 0.000000 0.000000
						}
					}
				}
			}
		}
	}
	JOINT RightUpLeg_virtual
	{
		OFFSET 0.000000 0.000000 0.000000
		CHANNELS 3 Zrotation Yrotation Xrotation
		JOINT RightUpLeg
		{
			OFFSET -10.205400 -3.823500 0.005500
			CHANNELS 3 Zrotation Yrotation Xrotation
			JOINT RightLeg
			{
				OFFSET -0.708756 -12.982134 0.610632
				CHANNELS 3 Zrotation Yrotation Xrotation
				JOINT RightFoot
				{
					OFFSET 0.708754 -10.717769 -1.945823
					CHANNELS 3 Zrotation Yrotation Xrotation
					JOINT RightToeBase
					{
						OFFSET -0.108140 -7.191069 7.372968
						CHANNELS 3 Zrotation Yrotation Xrotation
						End Site
						{
							OFFSET 0.000000 0.000000 0.000000
						}
					}
				}
			}
		}
	}
	JOINT Spine_virtual
	{
		OFFSET 0.000000 0.000000 0.000000
		CHANNELS 3 Zrotation Yrotation Xrotation
		JOINT Spine
		{
			OFFSET 0.000000 6.876099 0.125700
			CHANNELS 3 Zrotation Yrotation Xrotation
			JOINT Spine1
			{
				OFFSET 0.000000 8.022060 0.146608
				CHANNELS 3 Zrotation Yrotation Xrotation
				JOINT Spine2
				{
					OFFSET 0.000000 9.168068 0.167552
					CHANNELS 3 Zrotation Yrotation Xrotation
					JOINT Neck_virtual
					{
						OFFSET 0.000000 0.000000 0.000000
						CHANNELS 3 Zrotation Yrotation Xrotation
						JOINT Neck
						{
							OFFSET 0.000000 10.314075 0.188496
							CHANNELS 3 Zrotation Yrotation Xrotation
							JOINT Head
							{
								OFFSET 0.000000 7.643700 -2.377400
								CHANNELS 3 Zrotation Yrotation Xrotation
								End Site
								{
									OFFSET 0.000000 0.000000 0.000000
								}
							}
						}
					}
					JOINT LeftShoulder_virtual
					{
						OFFSET 0.000000 0.000000 0.000000
						CHANNELS 3 Zrotation Yrotation Xrotation
						JOINT LeftShoulder
						{
							OFFSET 4.392200 8.824978 0.174984
							CHANNELS 3 Zrotation Yrotation Xrotation
							JOINT LeftArm
							{
								OFFSET 8.771219 -2.981674 -0.026999
								CHANNELS 3 Zrotation Yrotation Xrotation
								JOINT LeftForeArm
								{
									OFFSET 8.512804 0.000000 -0.000000
									CHANNELS 3 Zrotation Yrotation Xrotation
									JOINT LeftHand
									{
										OFFSET 18.484802 0.000000 -0.000000
										CHANNELS 3 Zrotation Yrotation Xrotation
										End Site
										{
											OFFSET 0.000000 0.000000 0.000000
										}
									}
								}
							}
						}
					}
					JOINT RightShoulder_virtual
					{
						OFFSET 0.000000 0.000000 0.000000
						CHANNELS 3 Zrotation Yrotation Xrotation
						JOINT RightShoulder
						{
							OFFSET -4.392200 8.824993 0.141379
							CHANNELS 3 Zrotation Yrotation Xrotation
							JOINT RightArm
							{
								OFFSET -8.771282 -2.981682 -0.094208
								CHANNELS 3 Zrotation Yrotation Xrotation
								JOINT RightForeArm
								{
									OFFSET -8.494598 0.000000 0.000000
									CHANNELS 3 Zrotation Yrotation Xrotation
									JOINT RightHand
									{
										OFFSET -18.483803 0.000000 0.000001
										CHANNELS 3 Zrotation Yrotation Xrotation
										End Site
										{
											OFFSET 0.000000 0.000000 0.000000
										}
									}
								}
							}
						}
					}
				}
			}
		}
	}
}
MOTION
Frames: 10
Frame Time: 0.033333
27.906101 36.479946 -7.990813 -179.941033 3.971137 -179.927127 -2.628706 -0.764675 9.201089 -4.587544 -6.600177 -18.088796 10.932995 10.682301 12.705008 -8.859413 1.314760 13.875104 0.000000 0.000000 0.000000 2.535640 1.562638 7.885406 1.637399 1.599533 -2.967863 -10.192055 -0.242497 7.123384 9.479143 8.786734 5.089723 0.000000 0.000000 0.000000 1.752314 2.119523 0.748616 -4.628566 0.381512 -7.792203 0.160810 -4.834665 2.851676 -0.025047 0.000069 0.040934 -0.139045 -3.255052 5.235925 0.657121 4.319720 -3.703152 0.000000 0.000000 0.000000 1.191862 -2.246907 2.574449 7.875334 1.656914 -7.407748 -12.234690 18.170166 -23.348378 -6.667544 -29.753581 -4.093313 0.000000 0.000000 0.000000 -2.304576 -1.541668 2.039634 2.490177 -2.270654 -12.810247 39.951242 -28.978642 -29.734351 -2.099887 32.001817 -9.308358 0.000000 0.000000 0.000000 
27.896820 36.475937 -7.982931 -179.978258 3.865595 179.934189 -2.707747 -0.817491 9.287319 -4.659068 -6.282737 -18.073309 10.795500 10.914478 12.740359 -8.764622 1.378508 13.924951 0.000000 0.000000 0.000000 2.462611 1.491038 8.048160 1.484264 2.077840 -2.887670 -10.444561 0.115297 6.892625 9.586341 8.791544 4.618015 0.000000 0.000000 0.000000 1.712639 2.258830 0.913837 -4.630377 0.344482 -7.664891 0.161530 -4.887975 2.773113 -0.019082 -0.048547 -0.010444 -0.123959 -3.253095 5.328622 0.715548 4.305585 -3.646726 0.000000 0.000000 0.000000 1.163227 -2.408816 2.600765 7.845617 1.648585 -7.405662 -12.371518 18.387974 -23.150086 -6.696688 -29.740976 -4.098948 0.000000 0.000000 0.000000 -2.319035 -1.621033 2.131937 2.514706 -2.363687 -12.874284 39.897952 -29.043815 -29.631686 -2.084344 32.030268 -9.319575 0.000000 0.000000 0.000000 
27.891747 36.470982 -7.974572 -179.983449 3.890477 179.982178 -2.715584 -0.771482 9.304734 -4.623069 -6.222736 -18.160776 10.700947 10.962711 12.642993 -8.756940 1.376525 13.951364 0.000000 0.000000 0.000000 2.439260 1.570390 8.091555 1.463770 2.063989 -3.005556 -10.415784 0.088714 6.969871 9.565416 8.761375 4.582916 0.000000 0.000000 0.000000 1.674635 2.114663 0.987518 -4.630877 0.385039 -7.681101 0.163692 -4.833733 2.731091 -0.017637 -0.017495 -0.005121 -0.169139 -3.229718 5.296262 0.813538 4.233342 -3.539508 0.000000 0.000000 0.000000 1.180792 -2.230148 2.609433 7.806547 1.459151 -7.355932 -12.576127 18.473848 -22.982227 -6.580215 -29.733046 -4.086921 0.000000 0.000000 0.000000 -2.338921 -1.562381 2.163220 2.497951 -2.331173 -12.905164 39.855072 -29.068681 -29.700395 -2.080643 32.134035 -9.260487 0.000000 0.000000 0.000000 
27.895395 36.467609 -7.963013 -179.990525 3.850570 179.932427 -2.729960 -0.683382 9.406715 -4.562136 -6.292102 -18.254090 10.679112 11.019172 12.682126 -8.810522 1.326395 13.992807 0.000000 0.000000 0.000000 2.433424 1.597796 8.164727 1.477637 2.031883 -3.112990 -10.398256 0.123521 7.119453 9.544105 8.714176 4.523199 0.000000 0.000000 0.000000 1.655314 2.125605 1.188762 -4.608592 0.401384 -7.756048 0.159157 -4.803542 2.758333 -0.016453 -0.004760 0.024834 -0.164380 -3.212330 5.210904 0.985362 4.140449 -3.366235 0.000000 0.000000 0.000000 1.178621 -2.220937 2.541260 7.803626 1.234348 -7.354997 -12.762518 18.565475 -22.813209 -6.513956 -29.760794 -4.027591 0.000000 0.000000 0.000000 -2.343090 -1.513690 2.047907 2.480862 -2.359631 -12.731252 39.814050 -29.137112 -29.844590 -2.104259 32.267087 -9.201116 0.000000 0.000000 0.000000 
27.910164 36.466461 -7.949828 -179.874644 3.755950 179.935514 -2.622738 -0.679371 9.422277 -4.445625 -6.583736 -18.332528 10.776463 11.327829 12.762546 -8.978091 1.213433 14.074978 0.000000 0.000000 0.000000 2.552847 1.578201 8.225614 1.522314 2.060041 -3.209163 -10.413872 0.162004 7.222204 9.467411 8.629881 4.456365 0.000000 0.000000 0.000000 1.705582 2.117379 1.193152 -4.512408 0.408705 -7.610043 0.198199 -4.813584 2.675818 0.014111 -0.025101 0.001149 -0.220047 -3.110789 5.143153 1.196180 4.022023 -3.173241 0.000000 0.000000 0.000000 1.090513 -2.165144 2.519305 7.783375 0.996991 -7.356518 -12.907259 18.569006 -22.689248 -6.476309 -29.739829 -3.853877 0.000000 0.000000 0.000000 -2.405509 -1.483515 2.006520 2.487620 -2.358083 -12.727440 39.695424 -29.215998 -30.057077 -2.059734 32.373375 -9.000363 0.000000 0.000000 0.000000 
27.939762 36.471191 -7.931445 -179.902975 3.734286 179.956852 -2.683607 -0.672370 9.396131 -4.340972 -6.659684 -18.368530 10.754718 11.339567 12.699214 -8.994046 1.221489 14.105772 0.000000 0.000000 0.000000 2.514294 1.628595 8.219168 1.641779 2.069196 -3.289997 -10.421821 0.157655 7.291123 9.477973 8.569622 4.484760 0.000000 0.000000 0.000000 1.632534 2.150554 1.189064 -4.482977 0.447374 -7.578515 0.205272 -4.772065 2.623549 -0.003349 -0.013759 -0.005786 -0.176609 -3.123190 5.041654 1.409292 3.860547 -2.861667 0.000000 0.000000 0.000000 1.116824 -2.155867 2.465952 7.762489 0.668353 -7.382432 -13.012099 18.633009 -22.493531 -6.375388 -29.819872 -3.759871 0.000000 0.000000 0.000000 -2.376309 -1.492117 1.927729 2.455862 -2.330499 -12.630497 39.595559 -29.229166 -30.221688 -2.185016 32.452319 -8.994141 0.000000 0.000000 0.000000 
27.987413 36.474243 -7.909299 -179.994281 3.647300 179.974952 -2.800820 -0.668571 9.331480 -4.184442 -6.682289 -18.344802 10.727962 11.128496 12.679516 -8.969042 1.286332 14.111521 0.000000 0.000000 0.000000 2.413497 1.610759 8.183011 1.744242 2.061166 -3.312967 -10.349042 -0.049512 7.295375 9.458487 8.562021 4.570382 0.000000 0.000000 0.000000 1.540145 2.136297 1.123611 -4.427752 0.472229 -7.494644 0.199874 -4.731274 2.592322 -0.008537 -0.017805 0.021508 -0.100313 -3.105303 4.911372 1.620851 3.683398 -2.470014 0.000000 0.000000 0.000000 1.163436 -2.101485 2.366984 7.707258 0.401113 -7.458995 -13.159703 18.769537 -22.421353 -6.357671 -29.952480 -3.676321 0.000000 0.000000 0.000000 -2.328945 -1.489950 1.841688 2.482665 -2.237475 -12.614667 39.437984 -29.163617 -30.477574 -2.167237 32.463527 -8.732298 0.000000 0.000000 0.000000 
28.046440 36.479477 -7.892448 -179.907743 3.597871 179.960103 -2.732959 -0.654597 9.249477 -3.990471 -6.948877 -18.254563 10.795969 11.277547 12.661008 -9.094131 1.223594 14.161932 0.000000 0.000000 0.000000 2.473877 1.583389 8.123129 1.894734 2.093712 -3.265895 -10.318046 -0.134443 7.300169 9.410312 8.495277 4.638402 0.000000 0.000000 0.000000 1.558012 2.101911 1.074314 -4.276918 0.471773 -7.406697 0.226010 -4.563948 2.561333 -0.009167 -0.070279 -0.002939 -0.119298 -3.049101 4.822893 1.730835 3.419546 -2.024700 0.000000 0.000000 0.000000 1.110023 -2.147639 2.300522 7.557632 0.177038 -7.359303 -13.446277 18.990950 -22.200751 -6.172214 -30.241639 -3.448484 0.000000 0.000000 0.000000 -2.360268 -1.528633 1.817956 2.547386 -1.967281 -12.357007 39.365222 -29.050150 -30.786490 -2.337525 32.450205 -8.666236 0.000000 0.000000 0.000000 
28.115583 36.479607 -7.885570 -179.994486 3.596198 179.989186 -2.831265 -0.664869 9.178810 -3.803874 -7.019242 -18.208830 10.698110 11.050257 12.556207 -9.074301 1.261430 14.141953 0.000000 0.000000 0.000000 2.368710 1.597653 8.030431 2.041581 1.991415 -3.226239 -10.223868 -0.179064 7.340872 9.292343 8.470702 4.659697 0.000000 0.000000 0.000000 1.485206 2.163256 0.949901 -4.157528 0.598950 -7.332497 0.196723 -4.776955 2.551242 -0.011768 0.010723 -0.023191 -0.063295 -2.955488 4.763166 1.805123 3.166211 -1.455659 0.000000 0.000000 0.000000 1.143543 -2.006840 2.293310 7.323230 -0.105237 -7.263976 -13.903194 19.294386 -22.201549 -5.915101 -30.708011 -3.396358 0.000000 0.000000 0.000000 -2.303823 -1.361796 1.717479 2.691324 -1.877718 -12.182627 39.276429 -29.163996 -30.952276 -2.428582 32.573917 -8.441805 0.000000 0.000000 0.000000 
28.199644 36.480118 -7.876033 179.998202 3.585239 179.957849 -2.821110 -0.624261 9.166244 -3.562473 -7.200338 -18.179197 10.703169 10.987882 12.654344 -9.110855 1.256857 14.073861 0.000000 0.000000 0.000000 2.330355 1.611579 7.958036 2.226613 1.926771 -3.171387 -10.134357 -0.321013 7.457489 9.161847 8.486778 4.653024 0.000000 0.000000 0.000000 1.475911 2.110292 0.861258 -3.956259 0.625296 -7.238222 0.189384 -4.560836 2.576881 -0.012298 -0.005672 0.011954 -0.067816 -2.957841 4.653546 1.717242 2.824525 -0.748028 0.000000 0.000000 0.000000 1.164742 -1.958912 2.181973 7.040993 -0.286681 -7.244524 -14.624705 19.661502 -22.298841 -5.619974 -31.531705 -3.309019 0.000000 0.000000 0.000000 -2.286656 -1.308849 1.601011 2.849799 -1.742001 -11.831216 39.417623 -29.314284 -31.254283 -2.615550 32.957316 -8.271029 0.000000 0.000000 0.000000 
